<svg width="22" height="22" viewBox="0 0 22 22" fill="none" xmlns="http://www.w3.org/2000/svg">
<g clip-path="url(#clip0_72_1023)">
<mask id="mask0_72_1023" style="mask-type:luminance" maskUnits="userSpaceOnUse" x="0" y="0" width="22" height="22">
<path d="M22 0H0V22H22V0Z" fill="white"/>
</mask>
<g mask="url(#mask0_72_1023)">
<path fill-rule="evenodd" clip-rule="evenodd" d="M18.7944 3.19693C16.7266 1.13641 13.9765 0.00107326 11.0462 0C5.00815 0 0.0940392 4.89002 0.0919255 10.9007C0.0908902 12.8222 0.595639 14.6976 1.55419 16.3505L0 22L5.80701 20.4841C7.40684 21.3529 9.20838 21.8102 11.0415 21.8108H11.0462C17.0832 21.8108 21.9979 16.9203 22 10.9096C22.001 7.99653 20.8628 5.25749 18.7944 3.19693ZM11.0462 19.9698H11.0425C9.40901 19.9693 7.80655 19.5322 6.40838 18.7069L6.07593 18.5104L2.62986 19.4099L3.54955 16.0661L3.33313 15.7233C2.42185 14.2806 1.94023 12.6131 1.94126 10.9012C1.94338 5.90562 6.02761 1.84098 11.0499 1.84098C13.4817 1.84205 15.7676 2.78557 17.4866 4.49849C19.2057 6.21089 20.1517 8.48787 20.1506 10.9085C20.1485 15.9046 16.0643 19.9698 11.0462 19.9698ZM16.0401 13.1839C15.7665 13.0475 14.4209 12.3889 14.1698 12.2979C13.9187 12.2069 13.7365 12.1615 13.5542 12.4343C13.3719 12.7072 12.8473 13.3209 12.6876 13.5022C12.5279 13.6842 12.3682 13.7066 12.0946 13.5702C11.8209 13.4337 10.939 13.1463 9.89331 12.2184C9.07975 11.496 8.53031 10.6043 8.3707 10.3314C8.211 10.0586 8.35387 9.91118 8.4904 9.77578C8.6133 9.65351 8.76407 9.45749 8.90116 9.29857C9.03825 9.13964 9.08341 9.02574 9.17478 8.84432C9.26623 8.66238 9.2205 8.50358 9.15226 8.36707C9.08393 8.23068 8.53665 6.88988 8.30815 6.34471C8.08595 5.81366 7.86017 5.88578 7.69262 5.8769C7.53289 5.86904 7.35067 5.86749 7.1679 5.86749C6.98513 5.86749 6.68886 5.93541 6.4378 6.20832C6.18675 6.4811 5.47977 7.14029 5.47977 8.48049C5.47977 9.82077 6.46041 11.1166 6.5975 11.2985C6.73455 11.4804 8.52767 14.2314 11.2731 15.4117C11.926 15.6924 12.436 15.8602 12.8336 15.9856C13.4891 16.1932 14.0857 16.1639 14.5574 16.0938C15.0832 16.0155 16.1767 15.4347 16.4047 14.7985C16.6326 14.1624 16.6326 13.6167 16.5643 13.5032C16.4961 13.3899 16.3133 13.3213 16.0396 13.185L16.0401 13.1839Z" fill="#04091A"/>
</g>
</g>
<defs>
<clipPath id="clip0_72_1023">
<rect width="22" height="22" fill="white"/>
</clipPath>
</defs>
</svg>
