<?xml version="1.0" encoding="UTF-8"?>
<svg id="Layer_1" data-name="Layer 1" xmlns="http://www.w3.org/2000/svg" viewBox="0 0 677.66 143.88">
  <defs>
    <style>
      .cls-1 {
        fill: #fff;
      }

      .cls-2 {
        fill: #3fa9f5;
      }

      .cls-3 {
        fill: #231f20;
      }
    </style>
  </defs>
  <path class="cls-1" d="M210.78,45.97c-6.27,0-11.12,2.36-14.56,7.07-3.44,4.71-5.16,11.28-5.16,19.7,0,17.52,6.57,26.28,19.72,26.28,5.52,0,12.2-1.38,20.05-4.14v13.97c-6.45,2.69-13.65,4.03-21.6,4.03-11.43,0-20.17-3.47-26.23-10.4-6.06-6.93-9.08-16.88-9.08-29.85,0-8.17,1.49-15.33,4.46-21.47,2.97-6.14,7.25-10.86,12.82-14.13,5.57-3.28,12.1-4.92,19.59-4.92s15.3,1.84,23,5.53l-5.37,13.54c-2.94-1.4-5.89-2.61-8.87-3.65-2.97-1.04-5.89-1.56-8.76-1.56Z"/>
  <path class="cls-1" d="M280.65,111.8l-3.17-8.17h-.43c-2.76,3.47-5.6,5.88-8.52,7.23-2.92,1.34-6.73,2.02-11.42,2.02-5.77,0-10.31-1.65-13.62-4.94-3.31-3.3-4.97-7.99-4.97-14.08s2.23-11.08,6.69-14.11,11.19-4.7,20.18-5.02l10.43-.32v-2.63c0-6.09-3.12-9.14-9.35-9.14-4.8,0-10.44,1.45-16.93,4.35l-5.43-11.07c6.91-3.62,14.58-5.43,23-5.43s14.24,1.76,18.54,5.27c4.3,3.51,6.45,8.85,6.45,16.01v40.04h-11.45ZM275.81,83.96l-6.34.22c-4.77.14-8.31,1-10.64,2.58-2.33,1.58-3.49,3.98-3.49,7.2,0,4.62,2.65,6.93,7.95,6.93,3.8,0,6.83-1.09,9.11-3.28,2.27-2.18,3.41-5.09,3.41-8.71v-4.95Z"/>
  <path class="cls-1" d="M360.02,111.8h-16.39v-35.09c0-4.33-.77-7.58-2.31-9.75-1.54-2.17-3.99-3.25-7.36-3.25-4.59,0-7.9,1.53-9.94,4.59-2.04,3.06-3.06,8.14-3.06,15.24v28.27h-16.39v-60.08h12.52l2.2,7.68h.91c1.83-2.9,4.34-5.1,7.55-6.58,3.21-1.49,6.85-2.23,10.94-2.23,6.99,0,12.29,1.89,15.91,5.67,3.62,3.78,5.43,9.24,5.43,16.36v39.18Z"/>
  <path class="cls-1" d="M410.61,111.8l-3.17-8.17h-.43c-2.76,3.47-5.6,5.88-8.52,7.23-2.92,1.34-6.73,2.02-11.42,2.02-5.77,0-10.31-1.65-13.62-4.94-3.31-3.3-4.97-7.99-4.97-14.08s2.23-11.08,6.69-14.11c4.46-3.03,11.19-4.7,20.18-5.02l10.43-.32v-2.63c0-6.09-3.12-9.14-9.35-9.14-4.8,0-10.44,1.45-16.93,4.35l-5.43-11.07c6.91-3.62,14.58-5.43,23-5.43s14.24,1.76,18.54,5.27c4.3,3.51,6.45,8.85,6.45,16.01v40.04h-11.45ZM405.78,83.96l-6.34.22c-4.77.14-8.31,1-10.64,2.58-2.33,1.58-3.49,3.98-3.49,7.2,0,4.62,2.65,6.93,7.95,6.93,3.8,0,6.84-1.09,9.11-3.28,2.28-2.18,3.41-5.09,3.41-8.71v-4.95Z"/>
  <path class="cls-1" d="M450.96,111.8h-16.39V28.18h16.39v83.62Z"/>
  <path class="cls-1" d="M489.43,100.12c2.87,0,6.31-.63,10.32-1.88v12.2c-4.08,1.83-9.1,2.74-15.05,2.74-6.56,0-11.33-1.66-14.32-4.97-2.99-3.31-4.49-8.28-4.49-14.91v-28.97h-7.85v-6.93l9.03-5.48,4.73-12.68h10.48v12.79h16.82v12.31h-16.82v28.97c0,2.33.65,4.05,1.96,5.16,1.31,1.11,3.04,1.67,5.19,1.67Z"/>
  <path class="cls-1" d="M534.83,113.18c-9.67,0-17.23-2.67-22.68-8.01-5.45-5.34-8.17-12.9-8.17-22.68s2.52-17.85,7.55-23.35c5.03-5.5,11.99-8.25,20.88-8.25s15.1,2.42,19.83,7.26c4.73,4.84,7.09,11.52,7.09,20.05v7.95h-38.75c.18,4.66,1.56,8.29,4.14,10.91,2.58,2.62,6.2,3.92,10.86,3.92,3.62,0,7.04-.38,10.26-1.13,3.22-.75,6.59-1.95,10.1-3.6v12.68c-2.87,1.43-5.93,2.5-9.19,3.2-3.26.7-7.24,1.05-11.93,1.05ZM532.52,62.55c-3.47,0-6.2,1.1-8.17,3.31-1.97,2.2-3.1,5.33-3.39,9.38h23c-.07-4.05-1.13-7.17-3.17-9.38-2.04-2.2-4.8-3.31-8.28-3.31Z"/>
  <path class="cls-1" d="M594.08,113.18c-18.7,0-28.05-10.26-28.05-30.79,0-10.21,2.54-18.01,7.63-23.4,5.09-5.39,12.38-8.09,21.87-8.09,6.95,0,13.18,1.36,18.7,4.08l-4.84,12.68c-2.58-1.04-4.98-1.89-7.2-2.55-2.22-.66-4.44-.99-6.66-.99-8.53,0-12.79,6.06-12.79,18.16s4.26,17.63,12.79,17.63c3.15,0,6.07-.42,8.76-1.26,2.69-.84,5.37-2.16,8.06-3.95v14.03c-2.65,1.68-5.33,2.85-8.03,3.49-2.71.64-6.12.97-10.24.97Z"/>
  <path class="cls-1" d="M677.66,112.1h-16.39v-35.09c0-8.67-3.22-13-9.67-13-4.59,0-7.9,1.56-9.94,4.67-2.04,3.12-3.06,8.17-3.06,15.16v28.27h-16.39V28.48h16.39v17.03c0,1.33-.13,4.44-.38,9.35l-.38,4.84h.86c3.65-5.88,9.46-8.81,17.41-8.81,7.06,0,12.41,1.9,16.07,5.7,3.65,3.8,5.48,9.24,5.48,16.34v39.18Z"/>
  <g>
    <circle class="cls-2" cx="71.94" cy="71.94" r="71.94"/>
    <polygon class="cls-1" points="113.55 42.08 98.98 42.08 98.98 42.07 29.8 42.07 29.8 101.75 98.98 101.75 98.98 56.92 113.55 56.92 113.55 42.08"/>
    <polygon class="cls-3" points="84.15 102.02 83.92 84.48 83.88 84.45 83.88 57.39 45.01 57.39 45.01 86.43 69.18 86.43 84.15 102.02"/>
  </g>
</svg>